<?xml version="1.0" encoding="utf-8"?>
<!-- Generator: Adobe Illustrator 27.0.1, SVG Export Plug-In . SVG Version: 6.00 Build 0)  -->
<svg version="1.1" id="Layer_1" xmlns="http://www.w3.org/2000/svg" xmlns:xlink="http://www.w3.org/1999/xlink" x="0px" y="0px"
	 viewBox="0 0 700 700" style="enable-background:new 0 0 700 700;" xml:space="preserve">
<style type="text/css">
	.st0{fill-rule:evenodd;clip-rule:evenodd;}
</style>
<g>
	<path class="st0" d="M324.2,366.4l53.2,117.8l-69.7,75.4l-83.6-44.9l-14-45.2l-51.7-15.3l-29.6-115l91.9-82.2l7.6-68l99.1-33.8
		l-0.3,125.7l22.6,27.7L324.2,366.4z M158.6,560.9l-17.2-36l-53.9-13.8L70,552.8l10.8,28.9l53.2,9.7L158.6,560.9z M111.1,234.5
		l34.9,9.3l15.4-14.3l2.4-29.9l-36.6-7l-21.4,16.7L111.1,234.5z M420.9,593.2l146.1-60l63-245.1L528.5,141.6l-160.3-34.8l-169.9,58
		l-8.5,76.3l-97.4,87l39.2,152.1l52.6,15.6l12.8,41.4l102.4,55L420.9,593.2z"/>
</g>
</svg>
