<?xml version="1.0" encoding="utf-8"?>
<!-- Generator: Adobe Illustrator 27.0.1, SVG Export Plug-In . SVG Version: 6.00 Build 0)  -->
<svg version="1.1" id="Layer_1" xmlns="http://www.w3.org/2000/svg" xmlns:xlink="http://www.w3.org/1999/xlink" x="0px" y="0px"
	 viewBox="0 0 700 700" style="enable-background:new 0 0 700 700;" xml:space="preserve">
<g>
	<path d="M221.1,263.4l70,89.9c20.6-28.1,37.1-50.7,45.9-62.6c-0.5-0.7-0.9-1.2-0.9-1.2S318,240.5,303,208
		c4.6-10.9,7.2-22.9,7.2-35.6c0-50.4-40.9-91.2-91.2-91.2c-50.4,0-91.2,40.8-91.2,91.2c0,50.4,40.9,91.2,91.2,91.2
		C219.7,263.6,220.4,263.4,221.1,263.4L221.1,263.4z M173.4,172.4c0-25.2,20.4-45.6,45.6-45.6c25.2,0,45.6,20.4,45.6,45.6
		S244.2,218,219,218C193.8,218,173.4,197.6,173.4,172.4L173.4,172.4z"/>
	<path d="M409.6,390.2l-44.9,57.7l133.2,171c0,0,6.2-85-8.4-113.1C482.4,491.8,445.5,439.8,409.6,390.2L409.6,390.2z"/>
	<path d="M481,81.2c-50.4,0-91.2,40.8-91.2,91.2c0,12.6,2.6,24.6,7.2,35.6c-14.9,32.5-33.1,81.5-33.1,81.5s-138.8,188-153.4,216.2
		c-14.6,28.2-8.4,113.1-8.4,113.1l276.8-355.4c0.7,0,1.4,0.2,2.1,0.2c50.4,0,91.2-40.9,91.2-91.2C572.2,122,531.3,81.2,481,81.2
		L481,81.2z M481,218c-25.2,0-45.6-20.4-45.6-45.6c0-25.2,20.4-45.6,45.6-45.6s45.6,20.4,45.6,45.6C526.6,197.6,506.2,218,481,218
		L481,218z"/>
</g>
</svg>
